<svg width="567" height="145" viewBox="0 0 567 145" fill="none" xmlns="http://www.w3.org/2000/svg">
<path d="M104.862 81.6663H86.412V100.115C86.412 100.431 86.6674 100.686 86.9829 100.686H104.862C105.178 100.686 105.432 100.431 105.432 100.115V82.2361C105.432 81.9218 105.178 81.6663 104.862 81.6663Z" fill="#067433"/>
<path d="M155.161 1.2162H86.7725C86.4571 1.2162 86.2016 1.47164 86.2016 1.786V20.2339C83.7325 15.8699 80.5637 12.1512 76.7783 9.1845C72.9663 6.20331 68.5956 3.90304 63.7896 2.348C58.9791 0.78971 53.8064 0 48.415 0C40.9166 0 34.0757 1.34616 28.079 4.00188C22.08 6.65875 16.9473 10.3752 12.8232 15.0502C8.70358 19.7186 5.50247 25.2633 3.30883 31.5288C1.11404 37.7844 0 44.6597 0 51.9638C0 59.0879 1.11404 65.8266 3.30883 71.9933C5.50362 78.1723 8.70581 83.6248 12.8266 88.202C16.954 92.786 22.0866 96.4324 28.0823 99.0393C34.0779 101.648 40.9188 102.971 48.415 102.971C54.4529 102.971 60.0687 102.043 65.1058 100.211C70.1551 98.3751 74.6202 95.676 78.3789 92.1895C81.5789 89.225 84.2723 85.6796 86.4193 81.6388V62.2512H149.49C149.805 62.2512 150.06 61.9958 150.06 61.6814V43.8C150.06 43.4857 149.805 43.2302 149.49 43.2302H86.9736C86.6582 43.2302 86.4038 43.4857 86.4038 43.8V62.2501L70.6283 62.2446C70.304 62.2446 70.0529 62.4434 70.0218 62.7566L70.0251 62.7211C69.2177 69.121 66.9907 74.3425 63.4008 78.24C59.8355 82.1186 54.7939 84.0857 48.415 84.0857C43.7012 84.0857 39.6504 83.1649 36.3749 81.35C33.096 79.5362 30.3981 77.087 28.3566 74.0693C26.3096 71.0437 24.7945 67.5838 23.856 63.7873C22.9152 59.9698 22.4376 55.9912 22.4376 51.9638C22.4376 47.7574 22.9152 43.6178 23.8571 39.6603C24.7957 35.7328 26.3107 32.1808 28.3588 29.1052C30.3937 26.0507 33.0916 23.5794 36.3749 21.7612C39.6504 19.9451 43.7012 19.0244 48.415 19.0244C50.9808 19.0244 53.4732 19.4508 55.8224 20.2917C58.1716 21.1358 60.303 22.3265 62.158 23.8282C64.0117 25.3277 65.5834 27.0981 66.8263 29.0919C68.0392 31.0457 68.8312 33.2193 69.191 35.5518C69.2488 35.865 69.452 36.0894 69.7664 36.0872H90.3968C90.7056 36.0827 90.9866 35.8317 90.9566 35.523C90.3146 29.8394 88.7329 24.7257 86.2538 20.3216C86.2383 20.2928 86.2205 20.2661 86.2039 20.2372H155.161C155.476 20.2372 155.73 19.9829 155.73 19.6674V1.786C155.73 1.47164 155.476 1.2162 155.161 1.2162Z" fill="black"/>
<path d="M208.949 2.6939C208.865 2.47066 208.652 2.32294 208.414 2.32294H186.53C186.292 2.32294 186.08 2.46952 185.997 2.69169L149.193 100.016C149.052 100.389 149.327 100.788 149.727 100.788H171.15C171.392 100.788 171.607 100.636 171.687 100.407L179.064 79.4644C179.145 79.2367 179.36 79.0835 179.602 79.0835H214.517C214.761 79.0835 214.979 79.239 215.058 79.4711L222.166 100.401C222.245 100.632 222.462 100.788 222.706 100.788H244.808C245.207 100.788 245.482 100.39 245.342 100.018L208.949 2.6939ZM208.188 62.1084H185.957C185.564 62.1084 185.288 61.7185 185.419 61.3476L196.715 29.5222C196.896 29.0135 197.617 29.0179 197.793 29.5277L208.726 61.352C208.854 61.723 208.579 62.1084 208.188 62.1084Z" fill="black"/>
<path d="M208.949 2.6939C208.865 2.47066 208.652 2.32294 208.414 2.32294H186.53C186.292 2.32294 186.08 2.46952 185.997 2.69169L149.193 100.016C149.052 100.389 149.327 100.788 149.727 100.788H171.15C171.392 100.788 171.607 100.636 171.687 100.407L179.064 79.4644C179.145 79.2367 179.36 79.0835 179.602 79.0835H214.517C214.761 79.0835 214.979 79.239 215.058 79.4711L222.166 100.401C222.245 100.632 222.462 100.788 222.706 100.788H244.808C245.207 100.788 245.482 100.39 245.342 100.018L208.949 2.6939ZM208.188 62.1084H185.957C185.564 62.1084 185.288 61.7185 185.419 61.3476L196.715 29.5222C196.896 29.0135 197.617 29.0179 197.793 29.5277L208.726 61.352C208.854 61.723 208.579 62.1084 208.188 62.1084Z" fill="black"/>
<path d="M336.32 2.89274C336.32 2.5784 336.065 2.32294 335.749 2.32294H314.452C314.137 2.32294 313.882 2.5784 313.882 2.89274V63.4313C313.882 70.5532 312.454 75.8402 309.637 79.1435C306.834 82.4223 301.635 84.0861 294.183 84.0861C289.914 84.0861 286.474 83.4819 283.959 82.2912C281.447 81.1005 279.467 79.5455 278.071 77.6662C276.667 75.7813 275.734 73.5798 275.297 71.123C274.849 68.6227 274.621 66.0348 274.621 63.4313V2.89274C274.621 2.5784 274.366 2.32294 274.051 2.32294H252.754C252.44 2.32294 252.184 2.5784 252.184 2.89274V63.4313C252.184 76.8054 255.893 86.8507 263.208 93.2907C270.502 99.7139 280.924 102.971 294.183 102.971C307.26 102.971 317.66 99.6928 325.09 93.2262C332.541 86.7408 336.32 76.7165 336.32 63.4313L336.32 2.89274Z" fill="black"/>
<path d="M336.32 2.89274C336.32 2.5784 336.065 2.32294 335.749 2.32294H314.452C314.137 2.32294 313.882 2.5784 313.882 2.89274V63.4313C313.882 70.5532 312.454 75.8402 309.637 79.1435C306.834 82.4223 301.635 84.0861 294.183 84.0861C289.914 84.0861 286.474 83.4819 283.959 82.2912C281.447 81.1005 279.467 79.5455 278.071 77.6662C276.667 75.7813 275.734 73.5798 275.297 71.123C274.849 68.6227 274.621 66.0348 274.621 63.4313V2.89274C274.621 2.5784 274.366 2.32294 274.051 2.32294H252.754C252.44 2.32294 252.184 2.5784 252.184 2.89274V63.4313C252.184 76.8054 255.893 86.8507 263.208 93.2907C270.502 99.7139 280.924 102.971 294.183 102.971C307.26 102.971 317.66 99.6928 325.09 93.2262C332.541 86.7408 336.32 76.7165 336.32 63.4313L336.32 2.89274Z" fill="black"/>
<path d="M452.314 2.32349H473.612C473.927 2.32349 474.182 2.57881 474.182 2.89329V100.218C474.182 100.533 473.926 100.789 473.611 100.789H452.314C452 100.789 451.744 100.533 451.744 100.219V2.89329C451.744 2.57881 452 2.32349 452.314 2.32349Z" fill="black"/>
<path d="M452.314 2.32349H473.612C473.927 2.32349 474.182 2.57881 474.182 2.89329V100.218C474.182 100.533 473.926 100.789 473.611 100.789H452.314C452 100.789 451.744 100.533 451.744 100.219V2.89329C451.744 2.57881 452 2.32349 452.314 2.32349Z" fill="black"/>
<path d="M566.158 81.7637H514.745C514.431 81.7637 514.175 81.5083 514.175 81.1929V59.4517C514.175 59.1373 514.431 58.8819 514.745 58.8819H560.833C561.149 58.8819 561.404 58.6264 561.404 58.3109V41.7935C561.404 41.478 561.149 41.2226 560.833 41.2226H514.745C514.431 41.2226 514.175 40.9682 514.175 40.6528V21.915C514.175 21.5996 514.431 21.3441 514.745 21.3441H565.065C565.379 21.3441 565.635 21.0886 565.635 20.7743V2.89286C565.635 2.57852 565.379 2.32306 565.065 2.32306H492.307C491.993 2.32306 491.738 2.57852 491.738 2.89286V100.217C491.738 100.533 491.993 100.788 492.307 100.788H566.158C566.473 100.788 566.729 100.533 566.729 100.217V82.3335C566.729 82.0181 566.473 81.7637 566.158 81.7637Z" fill="black"/>
<path d="M566.158 81.7637H514.745C514.431 81.7637 514.175 81.5083 514.175 81.1929V59.4517C514.175 59.1373 514.431 58.8819 514.745 58.8819H560.833C561.149 58.8819 561.404 58.6264 561.404 58.3109V41.7935C561.404 41.478 561.149 41.2226 560.833 41.2226H514.745C514.431 41.2226 514.175 40.9682 514.175 40.6528V21.915C514.175 21.5996 514.431 21.3441 514.745 21.3441H565.065C565.379 21.3441 565.635 21.0886 565.635 20.7743V2.89286C565.635 2.57852 565.379 2.32306 565.065 2.32306H492.307C491.993 2.32306 491.738 2.57852 491.738 2.89286V100.217C491.738 100.533 491.993 100.788 492.307 100.788H566.158C566.473 100.788 566.729 100.533 566.729 100.217V82.3335C566.729 82.0181 566.473 81.7637 566.158 81.7637Z" fill="black"/>
<path d="M438.321 99.9872C437.361 98.6799 436.63 97.0616 436.149 95.1778C435.657 93.2674 435.294 91.2014 435.069 89.0388C434.843 86.8685 434.683 84.7215 434.594 82.6533C434.501 80.5585 434.41 78.7369 434.321 77.1797C434.137 74.7251 433.789 72.2248 433.288 69.7457C432.776 67.2421 431.955 64.9218 430.85 62.8504C429.736 60.7655 428.274 58.9262 426.504 57.3856C425.244 56.2916 423.737 55.3896 422.002 54.691C421.543 54.5055 421.532 53.8746 421.975 53.6581C426.419 51.4899 429.742 48.531 431.866 44.8434C434.309 40.6015 435.548 35.5112 435.548 29.7154C435.548 25.939 434.871 22.3614 433.535 19.0814C432.191 15.8026 430.224 12.8758 427.687 10.3812C425.15 7.89207 422.064 5.90502 418.513 4.47214C414.968 3.046 410.932 2.32294 406.519 2.32294H354.033C353.717 2.32294 353.462 2.5784 353.462 2.89274V100.218C353.462 100.533 353.717 100.788 354.033 100.788H375.329C375.644 100.788 375.9 100.533 375.9 100.218V63.2747C375.9 62.9592 376.155 62.7037 376.469 62.7037H396.828C402.031 62.7037 405.814 63.8489 408.074 66.1047C410.348 68.3839 411.862 72.0549 412.573 77.0131C413.114 80.8951 413.526 85.0147 413.798 89.2588C414.067 93.5084 414.798 97.2359 415.971 100.346C416.08 100.591 416.213 100.782 416.474 100.788H438.312C438.596 100.776 438.696 100.541 438.527 100.269L438.321 99.9872ZM409.596 43.264C407.246 45.3521 403.639 46.4118 398.874 46.4118H376.469C376.155 46.4118 375.9 46.1563 375.9 45.8408V20.552C375.9 20.2366 376.155 19.9811 376.469 19.9811H398.874C403.641 19.9811 407.248 21.0185 409.601 23.0634C411.932 25.0949 413.114 28.4348 413.114 32.9921C413.114 37.7304 411.93 41.1858 409.596 43.264Z" fill="black"/>
<path d="M438.321 99.9872C437.361 98.6799 436.63 97.0616 436.149 95.1778C435.657 93.2674 435.294 91.2014 435.069 89.0388C434.843 86.8685 434.683 84.7215 434.594 82.6533C434.501 80.5585 434.41 78.7369 434.321 77.1797C434.137 74.7251 433.789 72.2248 433.288 69.7457C432.776 67.2421 431.955 64.9218 430.85 62.8504C429.736 60.7655 428.274 58.9262 426.504 57.3856C425.244 56.2916 423.737 55.3896 422.002 54.691C421.543 54.5055 421.532 53.8746 421.975 53.6581C426.419 51.4899 429.742 48.531 431.866 44.8434C434.309 40.6015 435.548 35.5112 435.548 29.7154C435.548 25.939 434.871 22.3614 433.535 19.0814C432.191 15.8026 430.224 12.8758 427.687 10.3812C425.15 7.89207 422.064 5.90502 418.513 4.47214C414.968 3.046 410.932 2.32294 406.519 2.32294H354.033C353.717 2.32294 353.462 2.5784 353.462 2.89274V100.218C353.462 100.533 353.717 100.788 354.033 100.788H375.329C375.644 100.788 375.9 100.533 375.9 100.218V63.2747C375.9 62.9592 376.155 62.7037 376.469 62.7037H396.828C402.031 62.7037 405.814 63.8489 408.074 66.1047C410.348 68.3839 411.862 72.0549 412.573 77.0131C413.114 80.8951 413.526 85.0147 413.798 89.2588C414.067 93.5084 414.798 97.2359 415.971 100.346C416.08 100.591 416.213 100.782 416.474 100.788H438.312C438.596 100.776 438.696 100.541 438.527 100.269L438.321 99.9872ZM409.596 43.264C407.246 45.3521 403.639 46.4118 398.874 46.4118H376.469C376.155 46.4118 375.9 46.1563 375.9 45.8408V20.552C375.9 20.2366 376.155 19.9811 376.469 19.9811H398.874C403.641 19.9811 407.248 21.0185 409.601 23.0634C411.932 25.0949 413.114 28.4348 413.114 32.9921C413.114 37.7304 411.93 41.1858 409.596 43.264Z" fill="black"/>
<path d="M3.32298 121.071C5.24895 119.005 7.6998 117.971 10.6748 117.971C14.6557 117.971 17.5665 119.356 19.4073 122.127C20.4238 123.682 20.9698 125.244 21.0445 126.81H16.047C15.729 125.606 15.3209 124.699 14.8228 124.085C13.9328 122.995 12.6137 122.45 10.8654 122.45C9.08465 122.45 7.68034 123.22 6.65245 124.758C5.62457 126.296 5.11103 128.474 5.11103 131.29C5.11103 134.105 5.65297 136.215 6.73764 137.617C7.82232 139.018 9.20067 139.72 10.8727 139.72C12.5861 139.72 13.8931 139.119 14.7928 137.915C15.2901 137.267 15.703 136.297 16.0308 135.002H20.9958C20.5674 137.739 19.473 139.963 17.7134 141.679C15.9529 143.394 13.6976 144.25 10.9473 144.25C7.54405 144.25 4.86928 143.092 2.9214 140.776C0.973529 138.448 0 135.258 0 131.204C0 126.822 1.10738 123.443 3.32298 121.071Z" fill="#067433"/>
<path d="M37.373 125.09C38.2613 125.489 38.9915 126.097 39.5626 126.914C40.0469 127.607 40.3431 128.321 40.451 129.055C40.5581 129.787 40.6124 130.983 40.6124 132.642V143.552H35.8908V132.247C35.8908 131.247 35.7293 130.44 35.4073 129.827C34.9887 128.963 34.1944 128.531 33.0237 128.531C31.8109 128.531 30.8901 128.96 30.2614 129.818C29.6334 130.676 29.3195 131.901 29.3195 133.492V143.552H24.6952V118.533H29.3195V127.389C29.9871 126.311 30.7603 125.559 31.6381 125.133C32.5151 124.707 33.4391 124.494 34.4086 124.494C35.4965 124.494 36.4846 124.693 37.373 125.09Z" fill="#067433"/>
<path d="M54.7863 124.554C54.8463 124.559 54.9778 124.567 55.1838 124.579V129.552C54.8918 129.518 54.6322 129.496 54.405 129.484C54.1778 129.472 53.9945 129.467 53.8534 129.467C51.9923 129.467 50.7429 130.103 50.1053 131.375C49.7483 132.09 49.5698 133.192 49.5698 134.679V143.552H44.9131V124.988H49.3264V128.224C50.0403 126.986 50.6618 126.141 51.1924 125.686C52.0572 124.925 53.1832 124.545 54.5673 124.545C54.6533 124.545 54.7263 124.549 54.7863 124.554Z" fill="#067433"/>
<path d="M62.6474 122.774H57.9583V118.295H62.6474V122.774ZM57.9583 124.988H62.6474V143.552H57.9583V124.988Z" fill="#067433"/>
<path d="M70.7114 137.625C70.8087 138.489 71.0213 139.102 71.3474 139.464C71.9234 140.112 72.9878 140.435 74.5422 140.435C75.4557 140.435 76.181 140.294 76.7197 140.01C77.2568 139.725 77.5261 139.299 77.5261 138.732C77.5261 138.187 77.3087 137.773 76.8755 137.489C76.4422 137.204 74.8294 136.717 72.0386 136.024C70.0283 135.501 68.6134 134.849 67.7908 134.066C66.9682 133.294 66.5577 132.18 66.5577 130.728C66.5577 129.012 67.2002 127.539 68.4852 126.308C69.7687 125.077 71.5762 124.46 73.9078 124.46C76.1177 124.46 77.9204 124.923 79.3142 125.848C80.7063 126.773 81.5062 128.372 81.7123 130.642H77.088C77.0231 130.017 76.8544 129.523 76.5834 129.161C76.0739 128.502 75.2059 128.173 73.9808 128.173C72.9716 128.173 72.2528 128.338 71.8245 128.667C71.3961 128.995 71.1819 129.382 71.1819 129.825C71.1819 130.382 71.4091 130.784 71.865 131.034C72.321 131.295 73.9305 131.744 76.6937 132.38C78.5353 132.834 79.9161 133.521 80.8361 134.44C81.7447 135.372 82.1991 136.535 82.1991 137.932C82.1991 139.771 81.5468 141.273 80.239 142.436C78.9345 143.6 76.9144 144.182 74.1836 144.182C71.3977 144.182 69.342 143.566 68.0147 142.334C66.6858 141.103 66.0222 139.533 66.0222 137.625L70.7114 137.625Z" fill="#067433"/>
<path d="M83.7894 128.616V125.158H86.2557V119.981H90.8313V125.158H93.7032V128.616H90.8313V138.426C90.8313 139.187 90.9238 139.66 91.1071 139.848C91.2905 140.035 91.8535 140.129 92.7946 140.129C92.9358 140.129 93.0834 140.125 93.2408 140.12C93.3982 140.115 93.5523 140.107 93.7032 140.095V143.722L91.5128 143.807C89.3272 143.888 87.8345 143.489 87.0345 142.615C86.5153 142.058 86.2557 141.202 86.2557 140.044V128.616L83.7894 128.616Z" fill="#067433"/>
<path d="M101.426 122.774H96.7372V118.295H101.426V122.774ZM96.7372 124.988H101.426V143.552H96.7372V124.988Z" fill="#067433"/>
<path d="M112.909 132.26C113.771 132.146 114.386 132.005 114.756 131.835C115.421 131.54 115.754 131.08 115.754 130.455C115.754 129.694 115.499 129.169 114.989 128.88C114.478 128.59 113.73 128.445 112.744 128.445C111.636 128.445 110.852 128.73 110.391 129.297C110.063 129.718 109.844 130.285 109.734 131H105.272C105.369 129.377 105.804 128.042 106.575 126.998C107.803 125.363 109.911 124.545 112.898 124.545C114.843 124.545 116.57 124.949 118.08 125.754C119.591 126.56 120.345 128.083 120.345 130.319V138.834C120.345 139.425 120.357 140.141 120.378 140.98C120.41 141.616 120.503 142.048 120.654 142.275C120.805 142.501 121.032 142.689 121.335 142.837V143.552H116.305C116.164 143.177 116.067 142.825 116.013 142.496C115.96 142.167 115.916 141.793 115.883 141.372C115.241 142.099 114.501 142.717 113.664 143.228C112.663 143.83 111.532 144.131 110.269 144.131C108.658 144.131 107.329 143.651 106.28 142.692C105.228 141.733 104.704 140.372 104.704 138.613C104.704 136.331 105.548 134.679 107.237 133.657C108.163 133.1 109.526 132.703 111.324 132.465L112.909 132.26ZM115.737 134.526C115.441 134.718 115.142 134.875 114.84 134.994C114.538 135.113 114.125 135.224 113.599 135.326L112.546 135.53C111.559 135.713 110.85 135.934 110.42 136.195C109.692 136.637 109.328 137.324 109.328 138.255C109.328 139.085 109.551 139.683 109.995 140.052C110.44 140.422 110.982 140.606 111.618 140.606C112.629 140.606 113.56 140.299 114.41 139.686C115.262 139.073 115.705 137.954 115.737 136.331L115.737 134.526Z" fill="#067433"/>
<path d="M138.648 126.053C139.805 127.057 140.384 128.723 140.384 131.051V143.552H135.646V132.26C135.646 131.284 135.523 130.535 135.276 130.012C134.825 129.058 133.965 128.582 132.698 128.582C131.142 128.582 130.073 129.28 129.493 130.676C129.193 131.414 129.042 132.357 129.042 133.504V143.552H124.418V125.022H128.896V127.73C129.488 126.776 130.048 126.09 130.577 125.669C131.525 124.92 132.725 124.545 134.179 124.545C136 124.545 137.489 125.048 138.648 126.053Z" fill="#067433"/>
<path d="M154.289 118.482H171.342V122.893H159.254V128.667H169.849V133.027H159.254V143.552H154.289L154.289 118.482Z" fill="#067433"/>
<path d="M179.609 118.448H185.264L193.725 143.552H188.306L186.727 138.392H177.92L176.299 143.552H171.071L179.609 118.448ZM179.28 134.066H185.405L182.384 124.188L179.28 134.066Z" fill="#067433"/>
<path d="M196.768 118.448H201.846V133.866C201.846 135.59 202.041 136.85 202.429 137.644C203.032 139.051 204.347 139.754 206.373 139.754C208.388 139.754 209.698 139.051 210.301 137.644C210.689 136.85 210.884 135.59 210.884 133.866V118.448H215.962V133.878C215.962 136.547 215.568 138.625 214.78 140.112C213.311 142.837 210.509 144.199 206.373 144.199C202.237 144.199 199.429 142.837 197.95 140.112C197.162 138.625 196.768 136.547 196.768 133.878V118.448Z" fill="#067433"/>
<path d="M236.092 119.095C236.973 119.492 237.719 120.078 238.331 120.849C238.837 121.485 239.238 122.19 239.533 122.961C239.829 123.733 239.976 124.613 239.976 125.601C239.976 126.793 239.689 127.965 239.116 129.118C238.544 130.271 237.596 131.085 236.277 131.562C237.38 132.027 238.162 132.69 238.621 133.546C239.081 134.403 239.311 135.713 239.311 137.472V139.158C239.311 140.304 239.355 141.082 239.442 141.491C239.574 142.138 239.882 142.615 240.366 142.922V143.552H234.849C234.698 142.995 234.589 142.547 234.524 142.207C234.395 141.503 234.325 140.781 234.314 140.044L234.281 137.71C234.26 136.109 233.997 135.042 233.491 134.508C232.985 133.975 232.035 133.708 230.643 133.708H225.763V143.552H220.879V118.448H232.318C233.953 118.482 235.211 118.698 236.092 119.095ZM225.763 122.808V129.552H231.141C232.209 129.552 233.011 129.416 233.544 129.144C234.49 128.667 234.963 127.725 234.963 126.316C234.963 124.796 234.505 123.774 233.591 123.251C233.077 122.956 232.306 122.808 231.279 122.808H225.763Z" fill="#067433"/>
<path d="M249.322 143.552H244.357V118.448H249.322V143.552Z" fill="#067433"/>
<path d="M271.681 122.893H259.025V128.224H270.642V132.584H259.025V139.039H272.265V143.552H254.141V118.448H271.681V122.893Z" fill="#067433"/>
<path d="M334.105 118.321V122.766H326.95V143.425H321.92V122.766H314.732V118.321H334.105Z" fill="#067433"/>
<path d="M344.66 124.426C344.72 124.431 344.851 124.44 345.057 124.452V129.425C344.765 129.391 344.506 129.368 344.278 129.357C344.051 129.345 343.868 129.339 343.727 129.339C341.866 129.339 340.616 129.975 339.979 131.247C339.622 131.962 339.443 133.064 339.443 134.551V143.424H334.786V124.86H339.2V128.096C339.914 126.858 340.535 126.013 341.066 125.559C341.931 124.797 343.057 124.417 344.441 124.417C344.527 124.417 344.6 124.421 344.66 124.426Z" fill="#067433"/>
<path d="M354.772 132.133C355.633 132.018 356.248 131.877 356.618 131.707C357.283 131.412 357.616 130.952 357.616 130.327C357.616 129.566 357.361 129.041 356.852 128.752C356.341 128.462 355.593 128.318 354.606 128.318C353.498 128.318 352.714 128.602 352.253 129.169C351.926 129.59 351.707 130.157 351.596 130.872H347.134C347.232 129.249 347.666 127.914 348.437 126.87C349.665 125.235 351.773 124.417 354.76 124.417C356.706 124.417 358.432 124.821 359.943 125.627C361.453 126.432 362.208 127.955 362.208 130.191V138.707C362.208 139.298 362.219 140.013 362.24 140.853C362.273 141.488 362.365 141.92 362.516 142.147C362.667 142.373 362.894 142.561 363.198 142.709V143.424H358.168C358.026 143.05 357.929 142.697 357.876 142.368C357.822 142.04 357.778 141.665 357.746 141.244C357.103 141.971 356.363 142.59 355.526 143.101C354.525 143.702 353.394 144.003 352.132 144.003C350.521 144.003 349.192 143.523 348.142 142.564C347.09 141.605 346.566 140.245 346.566 138.485C346.566 136.203 347.41 134.551 349.099 133.529C350.026 132.972 351.389 132.575 353.186 132.337L354.772 132.133ZM357.6 134.398C357.303 134.59 357.004 134.747 356.702 134.866C356.401 134.985 355.987 135.096 355.461 135.198L354.408 135.403C353.422 135.585 352.713 135.806 352.283 136.067C351.554 136.51 351.191 137.196 351.191 138.128C351.191 138.957 351.413 139.555 351.858 139.924C352.302 140.294 352.844 140.478 353.48 140.478C354.491 140.478 355.422 140.171 356.272 139.558C357.124 138.945 357.567 137.826 357.6 136.203L357.6 134.398Z" fill="#067433"/>
<path d="M377.143 124.86H382.108L375.722 143.424H370.846L364.504 124.86H369.696L373.379 138.553L377.143 124.86Z" fill="#067433"/>
<path d="M391.733 132.133C392.595 132.018 393.21 131.877 393.58 131.707C394.245 131.412 394.578 130.952 394.578 130.327C394.578 129.566 394.323 129.041 393.813 128.752C393.302 128.462 392.554 128.318 391.568 128.318C390.459 128.318 389.676 128.602 389.215 129.169C388.887 129.59 388.668 130.157 388.558 130.872H384.096C384.193 129.249 384.628 127.914 385.399 126.87C386.627 125.235 388.735 124.417 391.722 124.417C393.667 124.417 395.394 124.821 396.904 125.627C398.415 126.432 399.169 127.955 399.169 130.191V138.707C399.169 139.298 399.181 140.013 399.202 140.853C399.234 141.488 399.327 141.92 399.478 142.147C399.629 142.373 399.856 142.561 400.159 142.709V143.424H395.129C394.988 143.05 394.891 142.697 394.837 142.368C394.784 142.04 394.74 141.665 394.707 141.244C394.065 141.971 393.325 142.59 392.488 143.101C391.487 143.702 390.356 144.003 389.093 144.003C387.482 144.003 386.153 143.523 385.103 142.564C384.052 141.605 383.528 140.245 383.528 138.485C383.528 136.203 384.372 134.551 386.061 133.529C386.987 132.972 388.35 132.575 390.148 132.337L391.733 132.133ZM394.561 134.398C394.264 134.59 393.966 134.747 393.664 134.866C393.362 134.985 392.948 135.096 392.423 135.198L391.37 135.403C390.383 135.585 389.674 135.806 389.244 136.067C388.516 136.51 388.152 137.196 388.152 138.128C388.152 138.957 388.375 139.555 388.819 139.924C389.264 140.294 389.806 140.478 390.442 140.478C391.452 140.478 392.384 140.171 393.234 139.558C394.086 138.945 394.529 137.826 394.561 136.203V134.398Z" fill="#067433"/>
<path d="M407.818 124.86V136.05C407.818 137.106 407.936 137.901 408.173 138.434C408.593 139.376 409.416 139.848 410.642 139.848C412.215 139.848 413.29 139.178 413.871 137.838C414.173 137.111 414.324 136.152 414.324 134.96V124.86H419.013V143.424H414.519V140.801C414.475 140.858 414.368 141.028 414.196 141.312C414.022 141.597 413.818 141.845 413.581 142.062C412.857 142.743 412.159 143.208 411.485 143.458C410.811 143.709 410.021 143.833 409.114 143.833C406.505 143.833 404.746 142.845 403.841 140.87C403.333 139.78 403.08 138.174 403.08 136.05V124.86L407.818 124.86Z" fill="#067433"/>
<path d="M421.747 143.424L427.783 134.023L422.007 124.894H427.67L430.624 130.271L433.511 124.894H439.011L433.203 133.938L439.239 143.424H433.478L430.435 137.843L427.361 143.424H421.747Z" fill="#067433"/>
<path d="M467.651 132.558C466.251 133.785 464.252 134.398 461.652 134.398H456.673V143.424H451.708V118.32H461.977C464.344 118.32 466.231 118.968 467.639 120.262C469.046 121.556 469.75 123.561 469.75 126.274C469.75 129.237 469.049 131.332 467.651 132.558ZM463.836 123.515C463.203 122.958 462.316 122.68 461.177 122.68H456.673V130.072H461.177C462.316 130.072 463.203 129.77 463.836 129.169C464.469 128.568 464.785 127.614 464.785 126.308C464.785 125.002 464.469 124.072 463.836 123.515Z" fill="#067433"/>
<path d="M477.993 124.86V136.05C477.993 137.106 478.112 137.901 478.348 138.434C478.769 139.376 479.591 139.848 480.818 139.848C482.39 139.848 483.466 139.178 484.047 137.838C484.349 137.111 484.5 136.152 484.5 134.96V124.86H489.189V143.424H484.694V140.801C484.65 140.858 484.543 141.028 484.371 141.312C484.198 141.597 483.993 141.845 483.756 142.062C483.033 142.743 482.335 143.208 481.66 143.458C480.987 143.709 480.197 143.833 479.29 143.833C476.68 143.833 474.922 142.845 474.016 140.87C473.508 139.78 473.255 138.174 473.255 136.05V124.86L477.993 124.86Z" fill="#067433"/>
<path d="M508.784 127.091C510.106 128.851 510.768 131.123 510.768 133.904C510.768 136.787 510.116 139.178 508.811 141.074C507.507 142.969 505.685 143.918 503.348 143.918C501.88 143.918 500.7 143.612 499.808 142.998C499.276 142.636 498.7 141.999 498.08 141.091V143.424H493.521V118.354H498.145V127.279C498.732 126.415 499.38 125.758 500.089 125.303C500.926 124.736 501.993 124.452 503.288 124.452C505.63 124.452 507.461 125.332 508.784 127.091ZM504.919 138.4C505.584 137.39 505.917 136.062 505.917 134.415C505.917 133.098 505.753 132.008 505.427 131.145C504.804 129.51 503.66 128.692 501.99 128.692C500.3 128.692 499.138 129.493 498.505 131.094C498.179 131.945 498.015 133.047 498.015 134.398C498.015 135.987 498.352 137.305 499.029 138.349C499.706 139.393 500.736 139.916 502.122 139.916C503.321 139.916 504.254 139.41 504.919 138.4Z" fill="#067433"/>
<path d="M518.703 143.424H514.079V118.32H518.703V143.424Z" fill="#067433"/>
<path d="M527.967 122.646H523.278V118.167H527.967V122.646ZM523.278 124.86H527.967V143.424H523.278V124.86Z" fill="#067433"/>
<path d="M543.024 131.519C542.939 130.826 542.716 130.203 542.358 129.646C541.837 128.897 541.029 128.522 539.934 128.522C538.373 128.522 537.305 129.334 536.731 130.957C536.426 131.817 536.275 132.962 536.275 134.389C536.275 135.748 536.426 136.842 536.731 137.668C537.282 139.212 538.324 139.984 539.852 139.984C540.938 139.984 541.707 139.677 542.163 139.064C542.617 138.451 542.895 137.656 542.992 136.68H547.714C547.605 138.156 547.097 139.553 546.187 140.87C544.736 142.993 542.586 144.054 539.739 144.054C536.891 144.054 534.797 143.169 533.453 141.398C532.111 139.626 531.439 137.33 531.439 134.508C531.439 131.324 532.181 128.846 533.664 127.074C535.147 125.303 537.195 124.417 539.804 124.417C542.023 124.417 543.839 124.94 545.252 125.984C546.666 127.028 547.503 128.875 547.762 131.519L543.024 131.519Z" fill="#067433"/>
<path d="M554.512 137.497C554.61 138.361 554.822 138.974 555.148 139.337C555.724 139.984 556.789 140.308 558.343 140.308C559.257 140.308 559.982 140.166 560.521 139.882C561.058 139.597 561.327 139.172 561.327 138.604C561.327 138.059 561.11 137.646 560.676 137.361C560.243 137.077 558.63 136.59 555.84 135.896C553.829 135.374 552.414 134.721 551.592 133.938C550.769 133.166 550.359 132.053 550.359 130.6C550.359 128.885 551.001 127.412 552.286 126.18C553.57 124.949 555.377 124.332 557.709 124.332C559.919 124.332 561.721 124.796 563.115 125.72C564.507 126.645 565.307 128.244 565.513 130.515H560.889C560.824 129.89 560.655 129.396 560.384 129.033C559.875 128.374 559.007 128.045 557.782 128.045C556.773 128.045 556.054 128.21 555.625 128.539C555.197 128.868 554.983 129.254 554.983 129.697C554.983 130.254 555.21 130.656 555.666 130.906C556.122 131.167 557.732 131.617 560.495 132.252C562.336 132.707 563.717 133.393 564.637 134.313C565.546 135.244 566 136.407 566 137.804C566 139.643 565.348 141.145 564.04 142.309C562.735 143.472 560.715 144.054 557.985 144.054C555.199 144.054 553.143 143.438 551.816 142.206C550.487 140.975 549.823 139.405 549.823 137.497L554.512 137.497Z" fill="#067433"/>
</svg>
